<?xml version="1.0" standalone="no"?>
<!DOCTYPE svg PUBLIC "-//W3C//DTD SVG 1.1//EN"
"http://www.w3.org/Graphics/SVG/1.1/DTD/svg11.dtd">
<svg data-v-1e121de1="" version="1.0" xmlns="http://www.w3.org/2000/svg" xmlns:xlink="http://www.w3.org/1999/xlink" width="100%" height="100%" viewBox="0 0 340.000000 250.000000" preserveAspectRatio="xMidYMid meet" color-interpolation-filters="sRGB" class="el-tooltip" style="margin: auto;"><rect data-v-1e121de1="" x="0" y="10%" width="100%" height="78%" fill="#ffbd00" fill-opacity="1" class="background"></rect><g data-v-1e121de1="" fill="#ffffff" class="icon-text-wrapper icon-svg-group iconsvg" transform="translate(75.63775634765625,86.82525634765625)"><g fill="#ffffff" class="iconsvg-imagesvg icon_container" transform="translate(0,0)"><rect fill="#ffffff" fill-opacity="0" stroke-width="2" x="0" y="0" width="76.34947842923748" height="76.34947842923748" class="image-rect"></rect> <svg viewBox="0 0 60 60.096832481822624" x="0" y="0" width="76.34947842923748" height="76.34947842923748" class="image-svg-svg bn"><g hollow-target="iconBnFill" mask="url(#e93e6ea8-7a94-474a-bca6-61821b39dcec)"><g><svg xmlns:x="http://ns.adobe.com/Extensibility/1.0/" xmlns:i="http://ns.adobe.com/AdobeIllustrator/10.0/" xmlns:graph="http://ns.adobe.com/Graphs/1.0/" xmlns="http://www.w3.org/2000/svg" xmlns:xlink="http://www.w3.org/1999/xlink" version="1.1" x="0" y="0" viewBox="4.9693684577941895 4.896694660186768 90.06126403808594 90.20661163330078" style="enable-background:new 0 0 100 100;" xml:space="preserve" width="60" height="60.096832481822624" filtersec="colorsf798153500"><g><g i:extraneous="self"><path class="st0" d="M95,44c-0.4-2.6-3-4.6-3.8-7c-0.8-2.5,0.2-5.6-1-7.9c-1.2-2.3-4.4-3.3-6-5.3c-1.6-2-1.8-5.3-3.7-7.1    c-1.9-1.7-5.2-1.6-7.4-3c-2.2-1.4-3.5-4.4-5.9-5.4c-2.4-1-5.5,0.3-8-0.3c-2.5-0.5-4.8-3-7.4-3.1c-2.5-0.1-5,2.1-7.6,2.5    c-2.6,0.3-5.6-1.1-8-0.4c-2.5,0.8-4.1,3.7-6.3,4.9c-2.3,1.2-5.6,0.8-7.6,2.4c-2,1.6-2.5,4.9-4.2,6.7c-1.7,1.9-5,2.7-6.4,4.8    C10.3,28,11,31.3,10,33.7c-1,2.4-3.8,4.2-4.3,6.7c-0.5,2.5,1.2,5.3,1.1,7.9C6.7,50.7,4.7,53.4,5,56c0.4,2.6,3,4.6,3.8,7    c0.8,2.5-0.2,5.6,1,7.9c1.2,2.3,4.4,3.3,6,5.3c1.6,2,1.8,5.3,3.7,7.1c1.9,1.7,5.2,1.6,7.4,3c2.2,1.4,3.5,4.4,5.9,5.4    c2.4,1,5.5-0.3,8,0.3c2.5,0.5,4.8,3,7.4,3.1c2.5,0.1,5-2.1,7.6-2.5c2.6-0.3,5.6,1.1,8,0.4c2.5-0.8,4.1-3.7,6.3-4.9    c2.3-1.2,5.6-0.8,7.6-2.4c2-1.6,2.5-4.9,4.2-6.7c1.7-1.9,5-2.7,6.4-4.8c1.4-2.2,0.7-5.4,1.7-7.8c1-2.4,3.8-4.2,4.3-6.7    c0.5-2.5-1.2-5.3-1.1-7.9C93.3,49.3,95.3,46.6,95,44z"></path></g></g></svg></g> <g filter="url(#colors8637185250)"><svg fill="#000000" xmlns="http://www.w3.org/2000/svg" xmlns:xlink="http://www.w3.org/1999/xlink" version="1.1" x="11" y="11.01775262166748" viewBox="10.7070 0.0000 78.5860 100.0000" enable-background="new 0 0 100 100" xml:space="preserve" width="38" height="38.061327238487664"><g><g><g><path d="M15.323,55.297c-0.505,1.855-0.795,3.805-0.795,5.825c0,2.019,0.29,3.967,0.795,5.826l17.928-5.826L15.323,55.297z"></path><path d="M33.923,59.053l-7.81-10.748c-2.122,1.763-3.795,4.034-4.834,6.64L33.923,59.053z"></path><path d="M84.682,75.546c1.375-4.569,2.131-9.405,2.131-14.424s-0.756-9.854-2.131-14.424l-44.39,14.424L84.682,75.546z"></path><path d="M39.619,63.191L63.771,96.43c6.793-5.201,12.035-12.312,14.929-20.539L39.619,63.191z"></path><path d="M10.707,70.732c1.787,4.855,4.88,9.063,8.866,12.207l14.351-19.748L10.707,70.732z"></path><path d="M35.684,64.469L18.073,88.703c5.054,3.434,11.09,5.512,17.611,5.724V64.469z"></path><path d="M37.859,64.469V100c7.744-0.213,14.915-2.688,20.889-6.784L37.859,64.469z"></path><path d="M37.859,57.773L71.825,11.03C62.177,4.27,50.494,0.221,37.859,0V57.773z"></path><path d="M35.684,50.074c-1.643,0.16-3.173,0.68-4.524,1.475l4.524,6.225V50.074z"></path><path d="M89.293,42.913c-3.632-10.486-10.305-19.537-18.977-26.107L39.619,59.053L89.293,42.913z"></path></g></g></g><desc>Created with Snap</desc><defs></defs></svg></g></g><mask id="e93e6ea8-7a94-474a-bca6-61821b39dcec"><g fill="white"><svg xmlns:x="http://ns.adobe.com/Extensibility/1.0/" xmlns:i="http://ns.adobe.com/AdobeIllustrator/10.0/" xmlns:graph="http://ns.adobe.com/Graphs/1.0/" xmlns="http://www.w3.org/2000/svg" xmlns:xlink="http://www.w3.org/1999/xlink" version="1.1" x="0" y="0" viewBox="4.9693684577941895 4.896694660186768 90.06126403808594 90.20661163330078" style="enable-background:new 0 0 100 100;" xml:space="preserve" width="60" height="60.096832481822624" filtersec="colorsf798153500"><g><g i:extraneous="self"><path d="M95,44c-0.4-2.6-3-4.6-3.8-7c-0.8-2.5,0.2-5.6-1-7.9c-1.2-2.3-4.4-3.3-6-5.3c-1.6-2-1.8-5.3-3.7-7.1    c-1.9-1.7-5.2-1.6-7.4-3c-2.2-1.4-3.5-4.4-5.9-5.4c-2.4-1-5.5,0.3-8-0.3c-2.5-0.5-4.8-3-7.4-3.1c-2.5-0.1-5,2.1-7.6,2.5    c-2.6,0.3-5.6-1.1-8-0.4c-2.5,0.8-4.1,3.7-6.3,4.9c-2.3,1.2-5.6,0.8-7.6,2.4c-2,1.6-2.5,4.9-4.2,6.7c-1.7,1.9-5,2.7-6.4,4.8    C10.3,28,11,31.3,10,33.7c-1,2.4-3.8,4.2-4.3,6.7c-0.5,2.5,1.2,5.3,1.1,7.9C6.7,50.7,4.7,53.4,5,56c0.4,2.6,3,4.6,3.8,7    c0.8,2.5-0.2,5.6,1,7.9c1.2,2.3,4.4,3.3,6,5.3c1.6,2,1.8,5.3,3.7,7.1c1.9,1.7,5.2,1.6,7.4,3c2.2,1.4,3.5,4.4,5.9,5.4    c2.4,1,5.5-0.3,8,0.3c2.5,0.5,4.8,3,7.4,3.1c2.5,0.1,5-2.1,7.6-2.5c2.6-0.3,5.6,1.1,8,0.4c2.5-0.8,4.1-3.7,6.3-4.9    c2.3-1.2,5.6-0.8,7.6-2.4c2-1.6,2.5-4.9,4.2-6.7c1.7-1.9,5-2.7,6.4-4.8c1.4-2.2,0.7-5.4,1.7-7.8c1-2.4,3.8-4.2,4.3-6.7    c0.5-2.5-1.2-5.3-1.1-7.9C93.3,49.3,95.3,46.6,95,44z"></path></g></g></svg></g> <g fill="black"><svg xmlns="http://www.w3.org/2000/svg" xmlns:xlink="http://www.w3.org/1999/xlink" version="1.1" x="11" y="11.01775262166748" viewBox="10.7070 0.0000 78.5860 100.0000" enable-background="new 0 0 100 100" xml:space="preserve" width="38" height="38.061327238487664"><g><g><g><path d="M15.323,55.297c-0.505,1.855-0.795,3.805-0.795,5.825c0,2.019,0.29,3.967,0.795,5.826l17.928-5.826L15.323,55.297z"></path><path d="M33.923,59.053l-7.81-10.748c-2.122,1.763-3.795,4.034-4.834,6.64L33.923,59.053z"></path><path d="M84.682,75.546c1.375-4.569,2.131-9.405,2.131-14.424s-0.756-9.854-2.131-14.424l-44.39,14.424L84.682,75.546z"></path><path d="M39.619,63.191L63.771,96.43c6.793-5.201,12.035-12.312,14.929-20.539L39.619,63.191z"></path><path d="M10.707,70.732c1.787,4.855,4.88,9.063,8.866,12.207l14.351-19.748L10.707,70.732z"></path><path d="M35.684,64.469L18.073,88.703c5.054,3.434,11.09,5.512,17.611,5.724V64.469z"></path><path d="M37.859,64.469V100c7.744-0.213,14.915-2.688,20.889-6.784L37.859,64.469z"></path><path d="M37.859,57.773L71.825,11.03C62.177,4.27,50.494,0.221,37.859,0V57.773z"></path><path d="M35.684,50.074c-1.643,0.16-3.173,0.68-4.524,1.475l4.524,6.225V50.074z"></path><path d="M89.293,42.913c-3.632-10.486-10.305-19.537-18.977-26.107L39.619,59.053L89.293,42.913z"></path></g></g></g><desc>Created with Snap</desc><defs></defs></svg></g></mask></svg> <defs><filter id="colors8637185250"><feColorMatrix type="matrix" values="0 0 0 0 0.99609375  0 0 0 0 0.99609375  0 0 0 0 0.99609375  0 0 0 1 0" class="icon-fecolormatrix"></feColorMatrix></filter> <filter id="colorsf798153500"><feColorMatrix type="matrix" values="0 0 0 0 0.99609375  0 0 0 0 0.99609375  0 0 0 0 0.99609375  0 0 0 1 0" class="icon-fecolormatrix"></feColorMatrix></filter> <filter id="colorsb5759523334"><feColorMatrix type="matrix" values="0 0 0 0 0  0 0 0 0 0  0 0 0 0 0  0 0 0 1 0" class="icon-fecolormatrix"></feColorMatrix></filter></defs></g> <g transform="translate(83.34947967529297,4.20849609375)" mask="url(#c72e0b16-8f8c-467f-a98f-79070035e4d5)"><g fill-rule="" class="tp-name iconsvg-namesvg" transform="translate(0,0)"><g><path d="M26.13 6.88L24.48 5.78Q26.89 2.69 28.32-0.11Q29.75-2.92 30.41-5.83L30.41-5.83Q31.73-11.61 31.73-22.71L31.73-22.71L31.73-38.34Q34.10-38.61 36.55-39.05Q38.99-39.49 41.36-40.07Q43.73-40.65 45.87-41.28Q48.02-41.91 49.83-42.57L49.83-42.57L50.55-40.81Q48.90-40.15 46.91-39.55Q44.94-38.94 42.63-38.39L42.63-38.39Q40.31-37.84 38.09-37.37Q35.86-36.91 33.60-36.63L33.60-36.63L33.60-24.53L52.58-24.53L52.58-22.71L45.05-22.71L45.05 6.11L43.23 6.11L43.23-22.71L33.60-22.71L33.60-22.39Q33.60-11.05 32.23-5.17L32.23-5.17Q30.91 0.71 26.13 6.88L26.13 6.88ZM2.53-25.46L17.55-25.46Q18.48-26.95 19.91-29.81L19.91-29.81Q21.45-32.95 22.22-35.20L22.22-35.20L23.93-34.59Q23.48-33.49 22.91-32.23Q22.33-30.96 21.56-29.26L21.56-29.26Q20.46-26.95 19.58-25.46L19.58-25.46L29.26-25.46L29.26-23.65L16.83-23.65L16.83-15.18L28.27-15.18L28.27-13.31L16.83-13.31L16.83-1.10Q16.83 0.82 16.64 1.95Q16.45 3.08 15.95 3.71Q15.46 4.34 14.66 4.62Q13.86 4.90 12.71 5.00L12.71 5.00Q11.55 5.12 10.56 5.14Q9.57 5.17 8.53 5.12L8.53 5.12L8.20 2.92Q9.24 3.02 10.12 3.08Q11 3.14 12.04 3.14L12.04 3.14Q12.98 3.08 13.56 2.94Q14.13 2.81 14.44 2.37Q14.74 1.93 14.85 1.07Q14.96 0.22 14.96-1.26L14.96-1.26L14.96-13.31L3.30-13.31L3.30-15.18L14.96-15.18L14.96-23.65L2.53-23.65L2.53-25.46ZM13.37-44.49L15.02-45.10Q15.35-44.44 15.76-43.59Q16.17-42.73 16.66-41.63L16.66-41.63Q17.11-40.59 17.43-39.74Q17.77-38.88 17.98-38.28L17.98-38.28L27.72-38.28L27.72-36.52L4.24-36.52L4.24-38.28L16.06-38.28Q15.84-38.88 15.56-39.57Q15.29-40.26 14.90-41.14L14.90-41.14Q14.41-42.30 14.05-43.09Q13.70-43.89 13.37-44.49L13.37-44.49ZM3.58 2.64L2.04 1.54Q4.07-0.94 5.97-4.21Q7.87-7.48 9.19-10.78L9.19-10.78L11-10.06Q9.52-6.54 7.59-3.25Q5.67 0.06 3.58 2.64L3.58 2.64ZM20.07-9.52L21.45-10.56Q22.05-9.79 22.85-8.77Q23.65-7.75 24.59-6.38L24.59-6.38Q25.52-5.00 26.23-3.85Q26.95-2.69 27.39-1.87L27.39-1.87L25.85-0.88L23.10-5.33Q22.16-6.76 21.42-7.75Q20.68-8.74 20.07-9.52L20.07-9.52ZM7.37-34.32L8.86-35.20Q9.29-34.54 9.82-33.60Q10.34-32.67 11-31.52L11-31.52Q12.38-29.04 12.93-27.61L12.93-27.61L11.28-26.84Q11-27.61 10.51-28.57Q10.01-29.54 9.40-30.75L9.40-30.75Q8.80-31.96 8.30-32.81Q7.81-33.66 7.37-34.32L7.37-34.32ZM58.85-25.52L57.20-26.62Q58.91-28.82 60.34-30.99Q61.77-33.16 62.98-35.37Q64.19-37.56 65.20-39.90Q66.22-42.24 67.16-44.83L67.16-44.83L69.14-44.33Q68.59-42.90 68.06-41.58Q67.54-40.26 66.94-38.99L66.94-38.99L76.56-38.99L76.56-37.18Q75.63-35.31 74.72-33.49Q73.81-31.68 72.71-30.09L72.71-30.09L78.59-30.09L78.59-7.42L60.99-7.42L60.99-28.49L58.85-25.52ZM82.61-21.84L92.45-21.84L92.45-32.29L81.40-32.29L81.40-34.16L94.71-34.16Q95.37-35.04 96.14-36.19Q96.91-37.34 97.79-38.83L97.79-38.83Q98.84-40.59 99.60-42.02Q100.38-43.45 100.92-44.55L100.92-44.55L102.69-43.84Q102.13-42.68 101.37-41.33Q100.59-39.98 99.50-38.23L99.50-38.23Q98.72-36.96 98.06-35.94Q97.41-34.92 96.80-34.16L96.80-34.16L106.04-34.16L106.04-32.29L94.38-32.29L94.38-21.84L105.10-21.84L105.10-19.91L94.38-19.91L94.38-9.24L107.41-9.24L107.41-7.15L94.38-7.15L94.38 6.43L92.45 6.43L92.45-7.15L80.52-7.15L80.52-9.24L92.45-9.24L92.45-19.91L82.61-19.91L82.61-21.84ZM74.64-37.18L66.11-37.18Q65.17-35.31 64.16-33.55Q63.14-31.79 62.04-30.09L62.04-30.09L70.73-30.09Q71.83-31.73 72.77-33.52Q73.70-35.31 74.64-37.18L74.64-37.18ZM62.65-18.21L62.65-9.19L68.97-9.19L68.97-18.21L62.65-18.21ZM70.62-9.19L76.94-9.19L76.94-18.21L70.62-18.21L70.62-9.19ZM62.65-28.32L62.65-19.86L68.97-19.86L68.97-28.32L62.65-28.32ZM76.94-28.32L70.62-28.32L70.62-19.86L76.94-19.86L76.94-28.32ZM57.86 3.30L57.70 1.38Q63.47 1.04 69.52 0.36Q75.57-0.33 81.34-1.26L81.34-1.26L81.45 0.66Q75.63 1.65 69.66 2.31Q63.69 2.97 57.86 3.30L57.86 3.30ZM84.53-43.73L86.02-44.60Q87.06-43.17 88.66-40.65L88.66-40.65Q89.43-39.38 90.03-38.34Q90.64-37.29 91.03-36.47L91.03-36.47L89.48-35.64Q89.05-36.41 88.44-37.45Q87.84-38.50 87.06-39.77L87.06-39.77Q86.30-41.03 85.66-42.02Q85.03-43.01 84.53-43.73L84.53-43.73Z" transform="translate(-2.035, 45.1)"></path></g> <!----> <!----> <!----> <!----> <!----> <!----> <!----></g> <g fill-rule="" hollow-target="t-name" class="tp-slogan iconsvg-slogansvg" fill="#ffffff" transform="translate(13.65999984741211,58.97999954223633)"><!----> <!----> <g><path d="M6.42-3.89L2.20-3.89L2.20 0L1.03 0L1.03-8.58L6.98-8.58L6.98-7.59L2.20-7.59L2.20-4.92L6.42-4.92L6.42-3.89ZM12.28-3.70L9.47-3.70L9.47 0L8.30 0L8.30-8.58L12.28-8.58Q15.14-8.58 15.14-6.28L15.14-6.28Q15.14-4.88 13.92-4.22L13.92-4.22Q14.95-3.94 14.95-2.58L14.95-2.58L15.05-1.03Q15-0.38 15.47-0.19L15.47-0.19L15.47 0L14.02 0Q13.88-0.61 13.83-2.16L13.83-2.16Q13.88-3.70 12.28-3.70L12.28-3.70ZM12.38-7.64L9.47-7.64L9.47-4.69L12.19-4.69Q13.92-4.69 13.92-6.19L13.92-6.19Q13.92-7.64 12.38-7.64L12.38-7.64ZM18.09-1.03L23.25-1.03L23.25 0L16.92 0L16.92-8.58L23.16-8.58L23.16-7.59L18.09-7.59L18.09-4.92L22.78-4.92L22.78-3.89L18.09-3.89L18.09-1.03ZM31.03-6.09L31.03-6.09L29.95-6.09Q29.86-7.73 27.80-7.83L27.80-7.83Q25.88-7.78 25.88-6.33L25.88-6.33Q25.88-5.39 26.91-5.25L26.91-5.25L29.34-4.69Q31.27-4.22 31.27-2.34L31.27-2.34Q31.22 0.05 27.89 0.14L27.89 0.14Q26.06 0.14 25.31-0.61L25.31-0.61Q24.38-1.31 24.42-2.77L24.42-2.77L25.55-2.77Q25.59-0.80 27.89-0.75L27.89-0.75Q30.14-0.80 30.19-2.20L30.19-2.20Q30.38-3.38 28.31-3.75L28.31-3.75L26.53-4.13Q24.70-4.64 24.70-6.19L24.70-6.19Q24.84-8.72 27.70-8.81L27.70-8.81Q30.94-8.81 31.03-6.09ZM33.89-5.06L38.39-5.06L38.39-8.58L39.56-8.58L39.56 0L38.39 0L38.39-3.98L33.89-3.98L33.89 0L32.72 0L32.72-8.58L33.89-8.58L33.89-5.06ZM46.08-8.58L50.39-1.64L50.39-8.58L51.52-8.58L51.52 0L50.20 0L45.84-6.94L45.80-6.94L45.80 0L44.67 0L44.67-8.58L46.08-8.58ZM54.61-1.03L59.77-1.03L59.77 0L53.44 0L53.44-8.58L59.67-8.58L59.67-7.59L54.61-7.59L54.61-4.92L59.30-4.92L59.30-3.89L54.61-3.89L54.61-1.03ZM66.05-7.13L66-7.13L64.03 0L62.81 0L60.56-8.58L61.78-8.58L63.42-1.59L63.47-1.59L65.39-8.58L66.66-8.58L68.58-1.59L68.63-1.59L70.22-8.58L71.48-8.58L69.23 0L68.02 0L66.05-7.13ZM78.84-6.09L78.84-6.09L77.77-6.09Q77.67-7.73 75.61-7.83L75.61-7.83Q73.69-7.78 73.69-6.33L73.69-6.33Q73.69-5.39 74.72-5.25L74.72-5.25L77.16-4.69Q79.08-4.22 79.08-2.34L79.08-2.34Q79.03 0.05 75.70 0.14L75.70 0.14Q73.88 0.14 73.13-0.61L73.13-0.61Q72.19-1.31 72.23-2.77L72.23-2.77L73.36-2.77Q73.41-0.80 75.70-0.75L75.70-0.75Q77.95-0.80 78-2.20L78-2.20Q78.19-3.38 76.13-3.75L76.13-3.75L74.34-4.13Q72.52-4.64 72.52-6.19L72.52-6.19Q72.66-8.72 75.52-8.81L75.52-8.81Q78.75-8.81 78.84-6.09Z" transform="translate(-1.03125, 8.8125)"></path></g></g></g></g><mask id="c72e0b16-8f8c-467f-a98f-79070035e4d5"><g fill-rule="" class="tp-name iconsvg-namesvg" transform="translate(0,0)" fill="white"><g><path d="M26.13 6.88L24.48 5.78Q26.89 2.69 28.32-0.11Q29.75-2.92 30.41-5.83L30.41-5.83Q31.73-11.61 31.73-22.71L31.73-22.71L31.73-38.34Q34.10-38.61 36.55-39.05Q38.99-39.49 41.36-40.07Q43.73-40.65 45.87-41.28Q48.02-41.91 49.83-42.57L49.83-42.57L50.55-40.81Q48.90-40.15 46.91-39.55Q44.94-38.94 42.63-38.39L42.63-38.39Q40.31-37.84 38.09-37.37Q35.86-36.91 33.60-36.63L33.60-36.63L33.60-24.53L52.58-24.53L52.58-22.71L45.05-22.71L45.05 6.11L43.23 6.11L43.23-22.71L33.60-22.71L33.60-22.39Q33.60-11.05 32.23-5.17L32.23-5.17Q30.91 0.71 26.13 6.88L26.13 6.88ZM2.53-25.46L17.55-25.46Q18.48-26.95 19.91-29.81L19.91-29.81Q21.45-32.95 22.22-35.20L22.22-35.20L23.93-34.59Q23.48-33.49 22.91-32.23Q22.33-30.96 21.56-29.26L21.56-29.26Q20.46-26.95 19.58-25.46L19.58-25.46L29.26-25.46L29.26-23.65L16.83-23.65L16.83-15.18L28.27-15.18L28.27-13.31L16.83-13.31L16.83-1.10Q16.83 0.82 16.64 1.95Q16.45 3.08 15.95 3.71Q15.46 4.34 14.66 4.62Q13.86 4.90 12.71 5.00L12.71 5.00Q11.55 5.12 10.56 5.14Q9.57 5.17 8.53 5.12L8.53 5.12L8.20 2.92Q9.24 3.02 10.12 3.08Q11 3.14 12.04 3.14L12.04 3.14Q12.98 3.08 13.56 2.94Q14.13 2.81 14.44 2.37Q14.74 1.93 14.85 1.07Q14.96 0.22 14.96-1.26L14.96-1.26L14.96-13.31L3.30-13.31L3.30-15.18L14.96-15.18L14.96-23.65L2.53-23.65L2.53-25.46ZM13.37-44.49L15.02-45.10Q15.35-44.44 15.76-43.59Q16.17-42.73 16.66-41.63L16.66-41.63Q17.11-40.59 17.43-39.74Q17.77-38.88 17.98-38.28L17.98-38.28L27.72-38.28L27.72-36.52L4.24-36.52L4.24-38.28L16.06-38.28Q15.84-38.88 15.56-39.57Q15.29-40.26 14.90-41.14L14.90-41.14Q14.41-42.30 14.05-43.09Q13.70-43.89 13.37-44.49L13.37-44.49ZM3.58 2.64L2.04 1.54Q4.07-0.94 5.97-4.21Q7.87-7.48 9.19-10.78L9.19-10.78L11-10.06Q9.52-6.54 7.59-3.25Q5.67 0.06 3.58 2.64L3.58 2.64ZM20.07-9.52L21.45-10.56Q22.05-9.79 22.85-8.77Q23.65-7.75 24.59-6.38L24.59-6.38Q25.52-5.00 26.23-3.85Q26.95-2.69 27.39-1.87L27.39-1.87L25.85-0.88L23.10-5.33Q22.16-6.76 21.42-7.75Q20.68-8.74 20.07-9.52L20.07-9.52ZM7.37-34.32L8.86-35.20Q9.29-34.54 9.82-33.60Q10.34-32.67 11-31.52L11-31.52Q12.38-29.04 12.93-27.61L12.93-27.61L11.28-26.84Q11-27.61 10.51-28.57Q10.01-29.54 9.40-30.75L9.40-30.75Q8.80-31.96 8.30-32.81Q7.81-33.66 7.37-34.32L7.37-34.32ZM58.85-25.52L57.20-26.62Q58.91-28.82 60.34-30.99Q61.77-33.16 62.98-35.37Q64.19-37.56 65.20-39.90Q66.22-42.24 67.16-44.83L67.16-44.83L69.14-44.33Q68.59-42.90 68.06-41.58Q67.54-40.26 66.94-38.99L66.94-38.99L76.56-38.99L76.56-37.18Q75.63-35.31 74.72-33.49Q73.81-31.68 72.71-30.09L72.71-30.09L78.59-30.09L78.59-7.42L60.99-7.42L60.99-28.49L58.85-25.52ZM82.61-21.84L92.45-21.84L92.45-32.29L81.40-32.29L81.40-34.16L94.71-34.16Q95.37-35.04 96.14-36.19Q96.91-37.34 97.79-38.83L97.79-38.83Q98.84-40.59 99.60-42.02Q100.38-43.45 100.92-44.55L100.92-44.55L102.69-43.84Q102.13-42.68 101.37-41.33Q100.59-39.98 99.50-38.23L99.50-38.23Q98.72-36.96 98.06-35.94Q97.41-34.92 96.80-34.16L96.80-34.16L106.04-34.16L106.04-32.29L94.38-32.29L94.38-21.84L105.10-21.84L105.10-19.91L94.38-19.91L94.38-9.24L107.41-9.24L107.41-7.15L94.38-7.15L94.38 6.43L92.45 6.43L92.45-7.15L80.52-7.15L80.52-9.24L92.45-9.24L92.45-19.91L82.61-19.91L82.61-21.84ZM74.64-37.18L66.11-37.18Q65.17-35.31 64.16-33.55Q63.14-31.79 62.04-30.09L62.04-30.09L70.73-30.09Q71.83-31.73 72.77-33.52Q73.70-35.31 74.64-37.18L74.64-37.18ZM62.65-18.21L62.65-9.19L68.97-9.19L68.97-18.21L62.65-18.21ZM70.62-9.19L76.94-9.19L76.94-18.21L70.62-18.21L70.62-9.19ZM62.65-28.32L62.65-19.86L68.97-19.86L68.97-28.32L62.65-28.32ZM76.94-28.32L70.62-28.32L70.62-19.86L76.94-19.86L76.94-28.32ZM57.86 3.30L57.70 1.38Q63.47 1.04 69.52 0.36Q75.57-0.33 81.34-1.26L81.34-1.26L81.45 0.66Q75.63 1.65 69.66 2.31Q63.69 2.97 57.86 3.30L57.86 3.30ZM84.53-43.73L86.02-44.60Q87.06-43.17 88.66-40.65L88.66-40.65Q89.43-39.38 90.03-38.34Q90.64-37.29 91.03-36.47L91.03-36.47L89.48-35.64Q89.05-36.41 88.44-37.45Q87.84-38.50 87.06-39.77L87.06-39.77Q86.30-41.03 85.66-42.02Q85.03-43.01 84.53-43.73L84.53-43.73Z" transform="translate(-2.035, 45.1)"></path></g>       </g> <rect fill="#000" x="0" y="0" width="82.05000305175781" height="12.950000762939453" transform="translate(11.65999984741211, 56.97999954223633)"></rect><g fill-rule="" hollow-target="t-name" class="tp-slogan iconsvg-slogansvg" transform="translate(13.65999984741211,58.97999954223633)" fill="#fff">  <g><path d="M6.42-3.89L2.20-3.89L2.20 0L1.03 0L1.03-8.58L6.98-8.58L6.98-7.59L2.20-7.59L2.20-4.92L6.42-4.92L6.42-3.89ZM12.28-3.70L9.47-3.70L9.47 0L8.30 0L8.30-8.58L12.28-8.58Q15.14-8.58 15.14-6.28L15.14-6.28Q15.14-4.88 13.92-4.22L13.92-4.22Q14.95-3.94 14.95-2.58L14.95-2.58L15.05-1.03Q15-0.38 15.47-0.19L15.47-0.19L15.47 0L14.02 0Q13.88-0.61 13.83-2.16L13.83-2.16Q13.88-3.70 12.28-3.70L12.28-3.70ZM12.38-7.64L9.47-7.64L9.47-4.69L12.19-4.69Q13.92-4.69 13.92-6.19L13.92-6.19Q13.92-7.64 12.38-7.64L12.38-7.64ZM18.09-1.03L23.25-1.03L23.25 0L16.92 0L16.92-8.58L23.16-8.58L23.16-7.59L18.09-7.59L18.09-4.92L22.78-4.92L22.78-3.89L18.09-3.89L18.09-1.03ZM31.03-6.09L31.03-6.09L29.95-6.09Q29.86-7.73 27.80-7.83L27.80-7.83Q25.88-7.78 25.88-6.33L25.88-6.33Q25.88-5.39 26.91-5.25L26.91-5.25L29.34-4.69Q31.27-4.22 31.27-2.34L31.27-2.34Q31.22 0.05 27.89 0.14L27.89 0.14Q26.06 0.14 25.31-0.61L25.31-0.61Q24.38-1.31 24.42-2.77L24.42-2.77L25.55-2.77Q25.59-0.80 27.89-0.75L27.89-0.75Q30.14-0.80 30.19-2.20L30.19-2.20Q30.38-3.38 28.31-3.75L28.31-3.75L26.53-4.13Q24.70-4.64 24.70-6.19L24.70-6.19Q24.84-8.72 27.70-8.81L27.70-8.81Q30.94-8.81 31.03-6.09ZM33.89-5.06L38.39-5.06L38.39-8.58L39.56-8.58L39.56 0L38.39 0L38.39-3.98L33.89-3.98L33.89 0L32.72 0L32.72-8.58L33.89-8.58L33.89-5.06ZM46.08-8.58L50.39-1.64L50.39-8.58L51.52-8.58L51.52 0L50.20 0L45.84-6.94L45.80-6.94L45.80 0L44.67 0L44.67-8.58L46.08-8.58ZM54.61-1.03L59.77-1.03L59.77 0L53.44 0L53.44-8.58L59.67-8.58L59.67-7.59L54.61-7.59L54.61-4.92L59.30-4.92L59.30-3.89L54.61-3.89L54.61-1.03ZM66.05-7.13L66-7.13L64.03 0L62.81 0L60.56-8.58L61.78-8.58L63.42-1.59L63.47-1.59L65.39-8.58L66.66-8.58L68.58-1.59L68.63-1.59L70.22-8.58L71.48-8.58L69.23 0L68.02 0L66.05-7.13ZM78.84-6.09L78.84-6.09L77.77-6.09Q77.67-7.73 75.61-7.83L75.61-7.83Q73.69-7.78 73.69-6.33L73.69-6.33Q73.69-5.39 74.72-5.25L74.72-5.25L77.16-4.69Q79.08-4.22 79.08-2.34L79.08-2.34Q79.03 0.05 75.70 0.14L75.70 0.14Q73.88 0.14 73.13-0.61L73.13-0.61Q72.19-1.31 72.23-2.77L72.23-2.77L73.36-2.77Q73.41-0.80 75.70-0.75L75.70-0.75Q77.95-0.80 78-2.20L78-2.20Q78.19-3.38 76.13-3.75L76.13-3.75L74.34-4.13Q72.52-4.64 72.52-6.19L72.52-6.19Q72.66-8.72 75.52-8.81L75.52-8.81Q78.75-8.81 78.84-6.09Z" transform="translate(-1.03125, 8.8125)"></path></g></g></mask></svg>